<svg width="681" height="313" viewBox="0 0 681 313" fill="none" xmlns="http://www.w3.org/2000/svg">
<path d="M447.779 150.781C446.323 150.781 445.595 150.781 445.047 150.386C444.5 149.991 444.269 149.301 443.809 147.92L396.368 5.644C395.53 3.13048 395.111 1.87373 395.737 1.00473C396.363 0.135742 397.688 0.135742 400.338 0.135742H442.422C443.882 0.135742 444.611 0.135742 445.16 0.532338C445.709 0.928935 445.938 1.62189 446.396 3.00781L462.276 51.0822C463.82 55.7578 464.592 58.0955 466.071 58.1271C467.549 58.1587 468.42 55.856 470.163 51.2506L486.106 9.11626C486.601 7.80825 486.849 7.15425 487.385 6.78343C487.922 6.41262 488.621 6.41262 490.02 6.41262H530.865C532.277 6.41262 532.983 6.41262 533.522 6.78918C534.062 7.16574 534.305 7.8285 534.792 9.15403L550.14 50.9238C551.876 55.6493 552.744 58.012 554.235 57.9826C555.726 57.9533 556.5 55.5582 558.049 50.7681L573.485 3.03285C573.937 1.63539 574.162 0.936666 574.713 0.536204C575.263 0.135742 575.998 0.135742 577.466 0.135742H618.464C621.107 0.135742 622.429 0.135742 623.055 1.00254C623.681 1.86933 623.266 3.12413 622.437 5.63372L575.405 147.91C574.947 149.295 574.718 149.988 574.169 150.384C573.621 150.781 572.891 150.781 571.432 150.781H535.743C534.459 150.781 533.817 150.781 533.305 150.458C532.794 150.135 532.517 149.555 531.965 148.396L513.296 109.213C511.652 105.762 510.829 104.036 509.506 104.038C508.183 104.041 507.367 105.769 505.734 109.227L487.25 148.383C486.699 149.548 486.424 150.131 485.911 150.456C485.399 150.781 484.754 150.781 483.465 150.781H447.779Z" fill="#4892B9"/>
<path d="M280.697 150.907C277.996 150.912 276.645 150.914 276.018 150.029C275.392 149.143 275.843 147.87 276.746 145.324L327.21 2.96009C327.686 1.61604 327.925 0.944011 328.466 0.560669C329.008 0.177327 329.721 0.176082 331.147 0.173594L373.961 0.0988688C375.387 0.09638 376.1 0.0951356 376.643 0.476585C377.186 0.858034 377.426 1.52922 377.907 2.8716L428.868 145.059C429.78 147.602 430.235 148.873 429.612 149.761C428.988 150.648 427.638 150.65 424.936 150.655L388.663 150.718C387.194 150.721 386.46 150.722 385.909 150.323C385.358 149.924 385.131 149.225 384.676 147.829L379.813 132.889C379.358 131.493 379.131 130.795 378.58 130.395C378.029 129.996 377.295 129.997 375.827 130L328.868 130.082C327.4 130.084 326.666 130.086 326.116 130.487C325.567 130.888 325.342 131.587 324.892 132.985L320.081 147.942C319.631 149.34 319.406 150.039 318.857 150.44C318.307 150.841 317.573 150.843 316.105 150.845L280.697 150.907Z" fill="#4892B9"/>
<path d="M4.18458 150.807C2.21195 150.807 1.22564 150.807 0.612818 150.195C0 149.582 0 148.595 0 146.623V5.3667C0 3.39408 0 2.40777 0.612818 1.79495C1.22564 1.18213 2.21195 1.18213 4.18458 1.18213H59.5418C103.494 1.18213 136.405 33.2757 136.405 75.9948C136.405 118.714 103.494 150.807 59.5418 150.807H4.18458Z" fill="#4892B9"/>
<path fill-rule="evenodd" clip-rule="evenodd" d="M143.328 0.296997C143.328 0.207938 143.4 0.135742 143.489 0.135742H185.013C185.102 0.135742 185.174 0.207938 185.174 0.296997V0.296997C185.174 0.386056 185.246 0.458252 185.335 0.458252H219.8C256.327 0.458252 285.938 26.4257 285.938 58.4583C285.938 78.8253 273.967 96.7404 255.859 107.088C254.234 108.016 253.422 108.48 253.163 109.213C252.904 109.947 253.229 110.78 253.879 112.447L266.601 145.053C267.611 147.641 268.115 148.935 267.492 149.847C266.869 150.759 265.481 150.759 262.703 150.759L225.246 150.762C223.875 150.762 223.189 150.762 222.657 150.402C222.126 150.043 221.871 149.406 221.361 148.133L209.732 119.087C209.222 117.814 208.967 117.177 208.436 116.818C207.905 116.458 207.219 116.458 205.847 116.458H189.359C187.386 116.458 186.4 116.458 185.787 117.071C185.174 117.684 185.174 118.67 185.174 120.643V146.596C185.174 148.569 185.174 149.555 184.561 150.168C183.948 150.781 182.962 150.781 180.989 150.781H147.513C145.54 150.781 144.554 150.781 143.941 150.168C143.328 149.555 143.328 148.569 143.328 146.596V116.654C143.328 116.546 143.241 116.458 143.133 116.458V116.458C143.025 116.458 142.938 116.371 142.938 116.263V0.653563C142.938 0.545694 143.025 0.458252 143.133 0.458252H143.167C143.256 0.458252 143.328 0.386056 143.328 0.296997V0.296997Z" fill="#4892B9"/>
<path d="M588.478 310.172C586.505 310.169 585.519 310.167 584.907 309.553C584.296 308.939 584.297 307.953 584.301 305.98L584.547 164.723C584.551 162.751 584.553 161.765 585.166 161.153C585.78 160.542 586.766 160.543 588.738 160.546L631.722 160.606C633.696 160.609 634.683 160.61 635.295 161.224C635.907 161.838 635.905 162.825 635.901 164.799L635.724 257.021C635.72 258.993 635.718 259.979 636.33 260.593C636.941 261.207 637.928 261.209 639.9 261.213L675.88 261.29C677.851 261.295 678.837 261.297 679.448 261.91C680.06 262.524 680.058 263.51 680.056 265.481L679.999 306.146C679.996 308.119 679.995 309.106 679.381 309.718C678.767 310.33 677.781 310.328 675.807 310.325L588.478 310.172Z" fill="#4892B9"/>
<path d="M496.664 312.851C451.413 312.851 417.203 279.456 417.203 235.436C417.203 191.416 451.413 158.021 496.664 158.021C541.916 158.021 576.126 191.416 576.126 235.436C576.126 279.456 541.916 312.851 496.664 312.851Z" fill="#4892B9"/>
<path d="M340.706 310.278C338.734 310.281 337.748 310.283 337.135 309.671C336.521 309.059 336.519 308.073 336.516 306.101L336.346 209.108C336.343 207.135 336.341 206.149 335.727 205.537C335.113 204.925 334.127 204.927 332.154 204.931L308.583 204.977C306.61 204.981 305.624 204.983 305.009 204.371C304.395 203.76 304.394 202.773 304.39 200.8L304.328 164.907C304.324 162.934 304.322 161.948 304.934 161.334C305.546 160.72 306.532 160.718 308.505 160.715L413.373 160.532C415.346 160.528 416.332 160.527 416.946 161.138C417.56 161.75 417.562 162.736 417.565 164.709L417.628 200.604C417.631 202.576 417.633 203.563 417.021 204.176C416.41 204.79 415.424 204.792 413.451 204.796L389.877 204.842C387.905 204.846 386.919 204.848 386.307 205.462C385.696 206.076 385.697 207.062 385.701 209.034L385.87 306.027C385.874 308 385.875 308.986 385.263 309.6C384.651 310.214 383.665 310.216 381.692 310.218L340.706 310.278Z" fill="#4892B9"/>
<path d="M243.294 312.85C211.248 312.794 187.031 293.426 184.675 267.922C184.502 266.045 184.415 265.107 185.039 264.424C185.663 263.741 186.666 263.743 188.672 263.747L222.74 263.806C224.377 263.809 225.196 263.81 225.703 264.128C226.211 264.446 226.765 265.582 227.872 267.852C230.179 272.585 236.443 275.973 243.791 275.986C251.802 276 258.738 272.109 258.746 267.122C258.775 250.424 186.664 257.021 186.753 206.278C186.803 177.221 211.087 157.964 242.698 158.019C273.058 158.072 294.705 176.212 296.858 200.986C297.021 202.869 297.103 203.811 296.48 204.489C295.857 205.168 294.854 205.166 292.849 205.162L260.874 205.107C259.326 205.104 258.552 205.103 258.066 204.819C257.579 204.536 256.928 203.391 255.625 201.101C253.502 197.371 248.408 194.893 242.201 194.882C235.272 194.87 229.204 197.895 229.195 203.1C229.165 220.448 303.375 210.168 303.284 262.429C303.231 293.004 275.771 312.906 243.294 312.85Z" fill="#4892B9"/>
<path d="M136.997 310.758C135.024 310.758 134.038 310.758 133.425 310.146C132.812 309.533 132.812 308.546 132.812 306.574V164.298C132.812 162.325 132.812 161.339 133.425 160.726C134.038 160.113 135.024 160.113 136.997 160.113H169.982C171.955 160.113 172.941 160.113 173.554 160.726C174.167 161.339 174.167 162.325 174.167 164.298V306.574C174.167 308.546 174.167 309.533 173.554 310.146C172.941 310.758 171.955 310.758 169.982 310.758H136.997Z" fill="#4892B9"/>
<path d="M37.9241 310.802C39.8968 310.799 40.8831 310.797 41.4948 310.183C42.1066 309.569 42.1049 308.583 42.1014 306.61L42.0558 280.457C42.0523 278.484 42.0506 277.498 42.6623 276.884C43.2741 276.27 44.2604 276.268 46.233 276.265L67.679 276.227C99.7452 276.171 125.695 250.131 125.639 218.065C125.583 185.999 99.5425 160.049 67.4763 160.105L4.18458 160.216C2.21195 160.219 1.22563 160.221 0.613887 160.835C0.00213914 161.449 0.00386059 162.435 0.00730348 164.408L0.255622 306.683C0.259065 308.656 0.260786 309.642 0.874673 310.254C1.48856 310.866 2.47488 310.864 4.44751 310.861L37.9241 310.802Z" fill="#4892B9"/>
</svg>
